<svg xmlns="http://www.w3.org/2000/svg" xmlns:xlink="http://www.w3.org/1999/xlink" viewBox="0 0 1734 1428"><defs><style>.cls-1{fill:#e4efff;}.cls-2{fill:#d7e6ff;}.cls-3,.cls-5{fill:#b4c7e4;}.cls-30,.cls-4{fill:#fff;}.cls-10,.cls-11,.cls-12,.cls-13,.cls-14,.cls-15,.cls-16,.cls-17,.cls-18,.cls-19,.cls-20,.cls-21,.cls-22,.cls-23,.cls-24,.cls-25,.cls-26,.cls-27,.cls-28,.cls-29,.cls-30,.cls-31,.cls-32,.cls-33,.cls-34,.cls-35,.cls-36,.cls-5,.cls-6,.cls-7,.cls-8,.cls-9{fill-rule:evenodd;}.cls-6{fill:url(#linear-gradient);}.cls-7{fill:#7a96c3;}.cls-8{fill:url(#linear-gradient-2);}.cls-9{fill:url(#linear-gradient-3);}.cls-10{fill:url(#linear-gradient-4);}.cls-11{fill:url(#linear-gradient-5);}.cls-12{fill:url(#linear-gradient-6);}.cls-13{fill:url(#linear-gradient-7);}.cls-14{fill:url(#linear-gradient-8);}.cls-15{fill:#212748;}.cls-16{fill:url(#linear-gradient-9);}.cls-17{fill:#e87965;}.cls-18{fill:url(#linear-gradient-10);}.cls-19{fill:url(#linear-gradient-11);}.cls-20{fill:url(#linear-gradient-12);}.cls-21{fill:url(#linear-gradient-13);}.cls-22{fill:#0e153e;}.cls-23{fill:url(#linear-gradient-14);}.cls-24{fill:url(#linear-gradient-15);}.cls-25{fill:url(#linear-gradient-16);}.cls-26{fill:url(#linear-gradient-17);}.cls-27{fill:url(#linear-gradient-18);}.cls-28{fill:#cdcdcd;}.cls-29{fill:url(#linear-gradient-19);}.cls-31{fill:#97b0d8;}.cls-32{fill:url(#linear-gradient-20);}.cls-33{fill:url(#linear-gradient-21);}.cls-34{fill:url(#linear-gradient-22);}.cls-35{fill:url(#linear-gradient-23);}.cls-36{fill:#45679c;}</style><linearGradient id="linear-gradient" x1="2392.49" y1="2123.61" x2="2393.44" y2="2123.61" gradientTransform="matrix(0, -299.9, -336.25, 0, 715528.08, 719007.71)" gradientUnits="userSpaceOnUse"><stop offset="0" stop-color="#749fe2"/><stop offset="1" stop-color="#b4c7e4"/></linearGradient><linearGradient id="linear-gradient-2" x1="2392.17" y1="2123.71" x2="2393.11" y2="2123.71" gradientTransform="matrix(0, -328.34, -328.34, 0, 698306.79, 785846.57)" gradientUnits="userSpaceOnUse"><stop offset="0" stop-color="#b4c7e4"/><stop offset="1" stop-color="#749fe2"/></linearGradient><linearGradient id="linear-gradient-3" x1="2387.23" y1="2112.3" x2="2388.17" y2="2112.3" gradientTransform="matrix(290.48, 389.17, 389.17, -290.48, -1514532.28, -314820.6)" gradientUnits="userSpaceOnUse"><stop offset="0" stop-color="#97b0d8"/><stop offset="1" stop-color="#6a8abb"/></linearGradient><linearGradient id="linear-gradient-4" x1="2387.71" y1="2113.22" x2="2388.66" y2="2113.22" gradientTransform="matrix(390.37, 453.13, 453.13, -390.37, -1888548.94, -256190.91)" gradientUnits="userSpaceOnUse"><stop offset="0" stop-color="#b4c7e4"/><stop offset="1" stop-color="#6a89bb"/></linearGradient><linearGradient id="linear-gradient-5" x1="2379.11" y1="2102.9" x2="2380.05" y2="2102.9" gradientTransform="matrix(82.23, 121.81, 121.81, -82.23, -450853.41, -116154.44)" gradientUnits="userSpaceOnUse"><stop offset="0" stop-color="#6fbb3c"/><stop offset="1" stop-color="#16824b"/></linearGradient><linearGradient id="linear-gradient-6" x1="2389.99" y1="2112.86" x2="2390.94" y2="2113" gradientTransform="matrix(-140.99, 332.01, 857.02, 20.03, -1472671.62, -835165.3)" xlink:href="#linear-gradient-5"/><linearGradient id="linear-gradient-7" x1="2386.09" y1="2115.85" x2="2387.03" y2="2115.85" gradientTransform="matrix(510.22, 92.25, 92.25, -510.22, -1411952.12, 860412.24)" gradientUnits="userSpaceOnUse"><stop offset="0" stop-color="#323a6d"/><stop offset="1" stop-color="#0e153e"/></linearGradient><linearGradient id="linear-gradient-8" x1="2388.64" y1="2048.33" x2="2389.58" y2="2048.33" gradientTransform="matrix(0, 174.6, 37.34, 0, -75981.75, -416168.2)" gradientUnits="userSpaceOnUse"><stop offset="0" stop-color="#579d28"/><stop offset="1" stop-color="#0b693a"/></linearGradient><linearGradient id="linear-gradient-9" x1="2389.05" y1="2092.09" x2="2390" y2="2092.09" gradientTransform="matrix(0, 212.24, 106.78, 0, -222895.03, -506156.2)" xlink:href="#linear-gradient-5"/><linearGradient id="linear-gradient-10" x1="2302.2" y1="2122.92" x2="2303.15" y2="2122.75" gradientTransform="matrix(30.38, 0, 23.36, -58.49, -118431.67, 124855.74)" gradientUnits="userSpaceOnUse"><stop offset="0" stop-color="#e2f9ff"/><stop offset="1" stop-color="#b5cacf"/></linearGradient><linearGradient id="linear-gradient-11" x1="2401.46" y1="2128.88" x2="2402.4" y2="2128.81" gradientTransform="matrix(-70.33, -121.84, -140.89, 68.16, 470029.49, 148155.55)" gradientUnits="userSpaceOnUse"><stop offset="0" stop-color="#fe8c77"/><stop offset="1" stop-color="#fdcb9f"/></linearGradient><linearGradient id="linear-gradient-12" x1="2378" y1="2107.52" x2="2378.94" y2="2107.52" gradientTransform="matrix(125.24, 109.77, 109.77, -125.24, -528085.47, 3435.49)" xlink:href="#linear-gradient-7"/><linearGradient id="linear-gradient-13" x1="2328.85" y1="2123.04" x2="2329.79" y2="2122.8" gradientTransform="matrix(43.41, 0, 23.36, -58.49, -149544.06, 124855.74)" xlink:href="#linear-gradient-10"/><linearGradient id="linear-gradient-14" x1="2378" y1="2107.81" x2="2378.94" y2="2107.81" gradientTransform="matrix(125.24, 109.77, 109.77, -125.24, -528085.47, 3435.49)" xlink:href="#linear-gradient-7"/><linearGradient id="linear-gradient-15" x1="2403.36" y1="2134.48" x2="2404.3" y2="2134.61" gradientTransform="matrix(-57.02, -124.34, -97.76, 60.05, 346926.7, 171291.69)" xlink:href="#linear-gradient-11"/><linearGradient id="linear-gradient-16" x1="2389.64" y1="2128.62" x2="2390.58" y2="2128.62" gradientTransform="matrix(-9.49, 209.07, -209.07, -9.49, 468884.47, -478699.46)" xlink:href="#linear-gradient-5"/><linearGradient id="linear-gradient-17" x1="2410.73" y1="2111.82" x2="2411.68" y2="2111.82" gradientTransform="matrix(-127.01, 6.96, 6.96, 127.01, 292584.08, -284083.75)" xlink:href="#linear-gradient-11"/><linearGradient id="linear-gradient-18" x1="2390.12" y1="2107.69" x2="2391.06" y2="2107.69" gradientTransform="matrix(34.32, 200.67, 300.54, 27.86, -714601.29, -537537.11)" gradientUnits="userSpaceOnUse"><stop offset="0" stop-color="#f1f9fd"/><stop offset="1" stop-color="#cdcdcd"/></linearGradient><linearGradient id="linear-gradient-19" x1="2379.51" y1="2107.87" x2="2380.45" y2="2107.87" gradientTransform="matrix(-1.46, 15.71, 313.4, 29.05, -656242.79, -97667.85)" xlink:href="#linear-gradient-18"/><linearGradient id="linear-gradient-20" x1="2419.56" y1="2103.43" x2="2420.51" y2="2103.43" gradientTransform="matrix(-78.46, 20.23, 20.23, 78.46, 147666.91, -213092.64)" xlink:href="#linear-gradient-5"/><linearGradient id="linear-gradient-21" x1="2348.34" y1="2122.88" x2="2349.28" y2="2122.88" gradientTransform="matrix(58.27, 0, 0, -58.27, -136624.47, 124598.53)" xlink:href="#linear-gradient-5"/><linearGradient id="linear-gradient-22" x1="2388.52" y1="2100.77" x2="2389.46" y2="2100.77" gradientTransform="matrix(0, 163.75, 163.75, 0, -343716.61, -390329.94)" xlink:href="#linear-gradient-5"/><linearGradient id="linear-gradient-23" x1="2388.34" y1="2102.26" x2="2389.29" y2="2102.26" gradientTransform="matrix(0, 156.59, 181.43, 0, -381132.17, -373048.02)" gradientUnits="userSpaceOnUse"><stop offset="0" stop-color="#e0f5ff"/><stop offset="1" stop-color="#abd4f4"/></linearGradient></defs><g id="Layer_2" data-name="Layer 2"><g id="Layer_1-2" data-name="Layer 1"><g id="scene"><g id="bg"><circle class="cls-1" cx="930.47" cy="698.07" r="698.07"/><rect class="cls-2" x="1298.56" y="488.48" width="105.04" height="45.01"/><rect class="cls-2" x="1426.61" y="488.48" width="105.04" height="45.01"/><rect class="cls-2" x="1364.54" y="427.72" width="105.04" height="45.01"/><rect class="cls-2" x="517.66" y="1185.58" width="105.04" height="45.01"/><rect class="cls-2" x="645.7" y="1185.58" width="105.04" height="45.01"/><rect class="cls-2" x="583.63" y="1124.82" width="105.04" height="45.01"/><rect class="cls-3" x="474.81" y="361.77" width="275.93" height="457.91"/><rect class="cls-4" x="506.66" y="394.09" width="212.22" height="393.27"/><path class="cls-5" d="M750.74,606.65V574.79H474.81v31.86Z"/><rect class="cls-3" x="596.84" y="361.77" width="31.86" height="457.91"/><rect class="cls-2" x="645.7" y="153.56" width="105.04" height="45.01"/><rect class="cls-2" x="773.74" y="153.56" width="105.04" height="45.01"/><rect class="cls-2" x="711.68" y="92.81" width="105.04" height="45.01"/></g><g id="lamp"><path class="cls-6" d="M1616.38,1270.68a55.82,55.82,0,0,0-55.82-55.83H1354.39a55.82,55.82,0,0,0-55.82,55.83v85.9h317.81v-85.9Z"/><path class="cls-7" d="M1517.81,1204.59a26.87,26.87,0,0,0-26.88-26.88H1424a26.87,26.87,0,0,0-26.88,26.88v10.26h120.68v-10.26Z"/><path class="cls-7" d="M1638,1386.45a9.7,9.7,0,0,1-9.69,9.7H1286.6a9.68,9.68,0,0,1-9.69-9.7v-20.18a9.68,9.68,0,0,1,9.69-9.69h341.75a9.7,9.7,0,0,1,9.69,9.69Z"/><path class="cls-7" d="M1235.1,20.82A231.13,231.13,0,0,1,1465.87,252v962.9h-16.8s.28-642.15,0-963.23a214.31,214.31,0,0,0-214-214,249.71,249.71,0,0,0-28,1.32,214.34,214.34,0,0,0-190.37,205c-.1,2.66-.14,5.32-.15,8v83.69a9.53,9.53,0,0,1-2.78,6.24,8.65,8.65,0,0,1-12.42-1.31,10,10,0,0,1-1.6-4.93q0-42,0-84A231.13,231.13,0,0,1,1230.51,20.82Z"/><path class="cls-8" d="M1189.52,403.14a181.22,181.22,0,0,0-362.44,0Z"/></g><g id="businessman"><path class="cls-9" d="M1171.86,441.24C998.29,487.19,997,595,936.37,710.76S739.61,891.53,740.64,986.26,774.78,1207,880.28,1207h340.93c88.22,0,148-72.85,194-146.79s130-271.82,67-459c-20.68-61.5-136.81-205.9-310.38-160Z"/><path class="cls-7" d="M1260.4,1177.71H888.3v29.75a15.3,15.3,0,0,0,15.27,15.27h341.56a15.28,15.28,0,0,0,15.27-15.27v-29.75Z"/><path class="cls-7" d="M1173.92,1222.72h-31.53l79.51,168a9.42,9.42,0,0,0,8.52,5.39h0a10.25,10.25,0,0,0,9.48-14.19l-66-159.23Z"/><path class="cls-7" d="M976.61,1222.72h31.53l-79.5,168a9.44,9.44,0,0,1-8.53,5.39h0a10.26,10.26,0,0,1-9.48-14.19l66-159.23Z"/><path class="cls-7" d="M1251.59,1222.72h-31.53l79.5,168a9.43,9.43,0,0,0,8.52,5.39h0a10.26,10.26,0,0,0,9.48-14.19c-17.17-41.42-66-159.23-66-159.23Z"/><path class="cls-7" d="M898.94,1222.72h31.53l-79.5,168a9.43,9.43,0,0,1-8.52,5.39h0A10.26,10.26,0,0,1,833,1382c17.17-41.42,66-159.23,66-159.23Z"/><path class="cls-10" d="M751.05,1074.58c-5.89-38.91,74.27-65.64,139.32-45.25,206,64.57,263.67,78.86,367.67-39.21,96.28-109.31,73.18-330.2,68-376.38s37.46-87.12,89.2-79.28c23.59,3.58,39.61,17.77,50,32.15,8,12.9,13.7,24.79,17,34.58,63,187.19-21.1,385.06-67,459S1309.43,1207,1221.21,1207H880.28c-68,0-106-52.42-124.62-115.06-1.06-4.57-2.15-8.59-3.29-11.94-.45-1.79-.9-3.59-1.32-5.4Z"/><g id="men"><path class="cls-11" d="M1120.52,715.09a28.34,28.34,0,0,0-26.11-39.35h0a24.37,24.37,0,0,0-21.19,12.33c-21.91,38.61-87.75,154.59-87.75,154.59L846.18,907l36.66,49.51,163.28-65,74.4-176.45Z"/><path class="cls-12" d="M1252.29,691.31a12.36,12.36,0,0,0-12-15.57H1104a19,19,0,0,0-18.32,14.06l-75.43,281.53,161.42,21s63.59-237.31,80.65-301Z"/><path class="cls-13" d="M1171.64,992.31l-26.06,50.26a66.14,66.14,0,0,1-63.08,35.56L788,1058.67l-272.94,1.15L531.32,983l249.11-17.84a148.82,148.82,0,0,1,15.23-.3l214.56,6.82Z"/><path class="cls-14" d="M531.32,983l-50.15-86.34a10.18,10.18,0,0,0-8.81-5.07h0a12.51,12.51,0,0,0-12.51,12.51v136.46A18.54,18.54,0,0,0,478,1059l37.1.77L531.32,983Z"/><path class="cls-15" d="M1041.79,975.67,786.29,857.6a53.29,53.29,0,0,0-44.27-.19L538.91,949.2,556,1040.62l201.82-91.89,124.39,18.83Z"/><path class="cls-16" d="M538.91,949.2l-82.64-42.58A16.11,16.11,0,0,0,438.12,909h0a16.16,16.16,0,0,0-3.14,20.1l67,115.48a19.89,19.89,0,0,0,25,8.33l29-12.27L538.91,949.2Z"/><path class="cls-17" d="M1201,595.67h-57.56l-9.35,80.07,16.44,20.63,41.12-20.63,9.35-80.07Z"/><path class="cls-18" d="M1150.53,696.37l-34,22.56,4.26-43.19,14.81-12.09Z"/><path class="cls-19" d="M1172.34,518,1077,535.91s9.87,52.48,17.56,93.44a48.53,48.53,0,0,0,56.65,38.72h0a48.52,48.52,0,0,0,38.73-56.65C1182.2,570.47,1172.34,518,1172.34,518Z"/><path class="cls-20" d="M1077,535.91l15.67,83.38a42.61,42.61,0,0,0,49.75,34h0a42.61,42.61,0,0,0,34-49.75l-15.67-83.38m11.63-2.18L1077,535.91s9.87,52.48,17.56,93.44a48.53,48.53,0,0,0,56.65,38.72h0a48.51,48.51,0,0,0,38.73-56.65c-7.7-40.95-17.56-93.43-17.56-93.43Z"/><path class="cls-21" d="M1150.53,696.37,1163,718.93l35.33-43.19-5.11-12.09-42.68,32.72Z"/><path class="cls-22" d="M1068.07,544.27s-1.14,15.67,5.8,24.59,11.4,11.26,11.4,11.26L1078.1,542l-10,2.31Z"/><path class="cls-23" d="M1177.15,574s-24.13-15.67-34.31-36.87c0,0-58.77,31-82.27,1.91s-11.26-74.54-11.26-74.54,18.94,16.18,28.82,14.22c32.28-6.43,45.71-12.14,74.9-14.91,20.29-1.94,47.47,19.86,48.43,31.55,0,0,25.58,5,30.35,45.31,3.07,26-15.56,63.71-34.11,82.63l-9.16-19.07L1177.16,574Z"/><path class="cls-24" d="M1182.67,572.92l7.46-1.4a15.91,15.91,0,0,1,18.57,12.69h0A15.9,15.9,0,0,1,1196,602.77l-7.47,1.41Z"/><path class="cls-25" d="M1250,675.74a27.45,27.45,0,0,0-27,22.58C1213.81,749.5,1192.1,870,1192.1,870l-146.83,30,7.16,60.55L1228,933.83a21.18,21.18,0,0,0,17.7-17.38c6.92-40.63,26.06-153,35.54-208.66a27.45,27.45,0,0,0-27.06-32Z"/><path class="cls-26" d="M1045.27,900l-9.24-2.21a54.57,54.57,0,0,0-35.43,3.46l-21.87,10a3.73,3.73,0,0,0-1.66,1.53c-1.78,3.19-7.35,13.12-11.85,21.15a12.07,12.07,0,0,0,5.34,16.81l24.35,11.6a27.62,27.62,0,0,0,21.83.82l11.89-4.61a25.71,25.71,0,0,1,18.46,0l5.34,2L1045.27,900Z"/><g id="macbook"><path class="cls-27" d="M970.26,814.85a7.85,7.85,0,0,0-7-6.48L763.51,789.86a7.83,7.83,0,0,0-8.45,9.12l23.23,135.86A14.16,14.16,0,0,0,791,946.56l205.08,19s-20.88-122.15-25.77-150.72Z"/><path class="cls-28" d="M960.91,813.81a4.48,4.48,0,0,1,4.82-5.21l.15,0a4.46,4.46,0,0,1,4,3.7l26.21,153.26-9.38-.87Z"/><path class="cls-29" d="M1013.43,967.19,788.27,946.32s-.18,1.92-.39,4.23a8.07,8.07,0,0,0,7.28,8.78l217.13,20.12,1.14-12.26Z"/><path class="cls-28" d="M996,965.57l120.55,16h0a7.54,7.54,0,0,1-8.21,6.82l-103-9.55a10.53,10.53,0,0,1-9.51-11.46c.1-1.07.16-1.78.16-1.78Z"/><path class="cls-30" d="M867.3,859.1c11.26,1,21.17,11.18,22.11,22.62s-7.44,19.89-18.69,18.84-21.16-11.18-22.11-22.62S856.05,858.06,867.3,859.1Z"/></g></g></g><g id="meja"><path class="cls-7" d="M527,1060.2H166.76A19.77,19.77,0,0,0,147,1080h0a19.77,19.77,0,0,0,19.78,19.78H527V1060.2Z"/><path class="cls-31" d="M527,1060.2H820.58A19.79,19.79,0,0,1,840.36,1080h0a19.79,19.79,0,0,1-19.78,19.78H527V1060.2Z"/><path class="cls-31" d="M598.25,1099.76H566.72s115.68,250.94,134.15,291a9.25,9.25,0,0,0,8.39,5.37h0a10.19,10.19,0,0,0,9.37-14.19c-25.18-59-120.38-282.2-120.38-282.2Z"/><path class="cls-7" d="M375.6,1099.76h31.53S291.45,1350.7,273,1390.78a9.25,9.25,0,0,1-8.39,5.37h0a10.19,10.19,0,0,1-9.37-14.19c25.18-59,120.38-282.2,120.38-282.2Z"/><path class="cls-31" d="M809,1099.76H777.46s115.68,250.94,134.15,291a9.25,9.25,0,0,0,8.39,5.37h0a10.19,10.19,0,0,0,9.37-14.19c-25.18-59-120.38-282.2-120.38-282.2Z"/><path class="cls-7" d="M179.21,1099.76h31.53s-115.68,250.94-134.15,291a9.24,9.24,0,0,1-8.39,5.37h0A10.19,10.19,0,0,1,58.83,1382c25.18-59,120.38-282.2,120.38-282.2Z"/></g><g id="vase"><path class="cls-32" d="M370.74,847.65c-16-1.54-42.72,17.64-62,46.52S283.48,952.59,293,963.81c16,1.54,42.73-17.64,62-46.52S380.3,858.87,370.74,847.65Z"/><path class="cls-33" d="M209.57,847.65c-9.56,11.22-3.66,40.76,15.66,69.64s46,48.06,62,46.52c9.56-11.22,3.66-40.76-15.66-69.64S225.61,846.11,209.57,847.65Z"/><path class="cls-34" d="M290.16,794.09c-17.36,6.56-31.45,39.58-31.45,78.73S272.8,945,290.16,951.55C307.51,945,321.6,912,321.6,872.82S307.51,800.65,290.16,794.09Z"/><path class="cls-35" d="M225,947.63a9.67,9.67,0,0,1,9.67-9.67h111a9.67,9.67,0,0,1,9.67,9.67h0a.53.53,0,0,1,0,.13c-.37,2.41-11.11,71.73-15.53,100.3a14.33,14.33,0,0,1-14.16,12.14H254.68a14.33,14.33,0,0,1-14.16-12.14c-4.42-28.57-15.15-97.89-15.53-100.3,0,0,0-.08,0-.13Z"/></g><path id="floor" class="cls-36" d="M1734,1412.07a15.94,15.94,0,0,0-15.93-15.93H15.93A15.93,15.93,0,0,0,0,1412.07H0A15.91,15.91,0,0,0,15.93,1428H1718.07a15.93,15.93,0,0,0,15.93-15.93Z"/></g></g></g></svg>